<svg id="monday_blac" xmlns="http://www.w3.org/2000/svg" viewBox="0 0 899.33 165.33"><defs><clipPath id="clip-path"><path fill="none" d="M-1.9 2674.41h1280"/></clipPath><clipPath id="clip-path-2"><path clip-path="url(#clip-path)" fill="none" d="M1278.1-5220.59H-1.9"/></clipPath><style>.cls-5{fill:#00d647}.cls-6{fill:#333}</style></defs><path d="M17.36 125.34A17 17 0 013 99.35l30.55-48.79a17 17 0 1128.77 18l-30.55 48.81a17 17 0 01-14.41 7.97z" fill="#ff3d57"/><path d="M70 125.34a17 17 0 01-14.37-26L86.2 50.56a17 17 0 1128.77 18l-30.55 48.81A17 17 0 0170 125.34z" fill="#ffcb00"/><ellipse class="cls-5" cx="122.66" cy="108.75" rx="17" ry="16.59"/><path class="cls-6" d="M883.37 96.29c5.36 0 8.56 3.76 8.56 9.92v21.12h7.28v-21.6c0-10.48-5-16.56-14.4-16.56-3.68 0-9.52 1-13 7.68a11.9 11.9 0 00-9.76-7.28 17 17 0 00-4.08-.24c-3 .24-8.32 2.08-10.32 6.24V90h-7.28v37.36h7.28v-20.19c0-7.84 5.2-10.88 10.4-10.88 4.88 0 8.08 3.68 8.08 9.84v21.2h7.28v-20.16c.04-6.24 3.8-10.96 9.96-10.88zm-69.74 24.8a12.09 12.09 0 0012.32-12.56c0-7.52-5.6-12.24-12.32-12.24S801.3 101 801.3 108.53a12.09 12.09 0 0012.32 12.56zm0 7c-10.64 0-19.52-7.76-19.52-19.6s8.89-19.32 19.51-19.32 19.6 7.52 19.6 19.36-8.96 19.6-19.6 19.6zm-57-19.6c0 11.84 9.12 19.6 19.76 19.6a19.47 19.47 0 0014.48-6.08l-5.6-4.64a12.56 12.56 0 01-21.44-8.88c0-7.52 5.84-12.24 12.56-12.24a12.52 12.52 0 018.88 3.52l5.52-4.64a19.35 19.35 0 00-14.4-6c-10.67.04-19.79 7.56-19.79 19.4z"/><path d="M752 44.32h-25.67l-18 46-17.87-46h-25.72L696 117l-19.43 48.05H702zM597.82 84.74c0 11.62 10.24 19.26 20.3 19.26 9.89 0 19.6-7.11 19.6-19.26S628 65.48 618.11 65.48c-10.06 0-20.29 7.64-20.29 19.26zm39.9 40.59v-9.19c-5.2 7.81-17.35 10.76-23.59 10.76-20.64 0-41.29-16.13-41.29-42.16s20.64-42.16 41.29-42.16c5.2 0 17.35 1.73 23.59 10.76v-9h23.94v81zm-71.69 0h-23.94v-10.06c-4 7.46-13.7 11.8-23.77 11.8-20.82 0-39.21-16.48-39.21-42 0-26 18.39-42.5 39.21-42.5 10.06 0 19.78 4.16 23.77 11.62V.25H566zm-24.46-40.76c0-12.14-8.85-19.26-18.74-19.26-10.24 0-18.74 7.63-18.74 19.26 0 12 8.5 19.6 18.74 19.6 10.06 0 18.74-7.98 18.74-19.6zm-121.65-2.09c0-12.32 6.42-16.48 14.92-16.48 8.15 0 14.05 5.38 14.05 16.13v43.2H473v-48.4c0-23.07-11.45-34.35-29.67-34.35-9.54 0-19.08 5.38-23.42 13.53V44.32H395.8v81h24.11zm-73.08 44.24c-22.9 0-42-16.65-42-42.16s19.08-42 42-42S389 59.06 389 84.57s-19.26 42.15-42.16 42.15zm0-23.59c10.06 0 18.39-7.29 18.39-18.56 0-10.93-8.33-18.39-18.39-18.39a17.93 17.93 0 00-18.22 18.39c0 11.27 8.33 18.56 18.22 18.56zM261.62 66c7.11 0 13.38 5.55 13.38 16.14v43.2h23.94v-46c0-24.46-12-36.78-31.23-36.78-5.72 0-16.48 1.73-24.29 14.4-4.51-9.37-13.18-14.23-26-14.23a23.18 23.18 0 00-21.16 13.36V44.32H172.1v81h24.11V82.48C196.21 70.17 203 66 210.27 66c6.94 0 13.18 5.38 13.36 15.61v43.72h24.11V82.48C247.74 70.69 254 66 261.62 66z" fill-rule="evenodd" fill="#333"/><path class="cls-6" d="M734.44 121.17a5.25 5.25 0 0010.48 0 5.24 5.24 0 00-10.48 0z"/><g clip-path="url(#clip-path-2)"><circle class="cls-5" cx="578.6" cy="102.91" r="31.5"/></g></svg>