<svg width="200" height="66" xmlns="http://www.w3.org/2000/svg"><g fill-rule="nonzero" fill="none"><path fill="#647883" d="M17.53 65.26L0 12.74h11.94L22.68 48l11.78-35.36h8.36L54.68 48l10.74-35.21h11.71l-17.6 52.52h-9.48L38.64 30.47 27 65.26zM77.82 65.26V28h10.51v8.2c3.25-9.61 14.18-8.18 14.18-8.18v10.29s-14.18-1-14.18 10.47v16.44l-10.51.04zM107.43 65.26V42.34l10.51-10.04v32.96zM126.77 65.26v-41.1l10.51-10.5v28L150.11 28H163l-16.19 16.78 18.73 20.44H152l-14.7-16v16z"/><path d="M169.22 60.42c-3.9-3.53-5.89-8.25-5.89-14.06a19 19 0 015.3-13.7c3.54-3.75 8.18-5.59 13.85-5.59a15.74 15.74 0 0112.73 5.67A20.59 20.59 0 01200 46.51v2.72h-26.36c1.1 5 5.82 7.66 12.3 7.66a23.55 23.55 0 0011.78-3.24V62c-3.32 2.5-8 3.75-14 3.75a20.82 20.82 0 01-14.5-5.33zm20.54-17.82a7.47 7.47 0 00-7.73-7.36 8 8 0 00-8.39 7.36h16.12z" fill="#647883"/><path fill="#00A651" d="M128.81.28L105.29 23.8l6.99 6.99L142.79.28z"/><path fill="#A6CE39" d="M108.08 12.61H94.1l18.18 18.18 6.99-6.99z"/></g></svg>